<svg width="200" height="200" viewBox="0 0 200 200" fill="none" xmlns="http://www.w3.org/2000/svg">
  <rect width="200" height="200" fill="#CCEB3C"/>
  <g transform="translate(16, 24) scale(0.328)">
    <path d="M190.057 0L179.067 19.9815L151.342 17.4839L126.615 76.1796L151.342 73.6819L144.099 91.1657H120.371L91.6475 159.852L125.616 154.857L114.626 174.838H58.678L83.1553 129.88L131.111 15.7355L121.12 14.4866L127.364 0H190.057Z" fill="#0a0a0a"/>
    <path d="M217.32 0C228.976 0 238.218 3.49679 245.045 10.4903C251.872 17.4839 255.285 27.5579 255.285 40.7124C255.285 54.0334 251.539 69.6023 244.046 87.4192C236.386 105.236 227.145 120.722 216.321 133.876C205.665 147.031 194.508 157.188 182.852 164.348C171.363 171.342 160.456 174.838 150.132 174.838H131.15L154.628 129.88L202.584 15.7355L192.593 14.4866L198.588 0H217.32ZM221.567 87.4192C230.059 68.6033 234.305 52.9511 234.305 40.4626C234.305 34.3016 233.222 29.3895 231.058 25.7262C229.06 21.8964 226.229 19.3987 222.566 18.2331L164.619 155.856C173.111 152.692 182.686 145.033 193.343 132.877C204.166 120.555 213.574 105.403 221.567 87.4192Z" fill="#0a0a0a"/>
    <path d="M385.684 0H463.862L443.631 19.9815L423.649 14.9862L289.523 174.838H258.802L302.761 129.88L399.172 14.9862L371.448 19.9815L385.684 0Z" fill="#0a0a0a"/>
    <path d="M20.9806 403.953C14.8196 403.953 9.82419 401.455 5.9944 396.459C1.99809 391.464 0 384.304 0 374.979C0 366.654 1.83159 356.746 5.49488 345.257L26.975 342.759C21.9797 357.745 19.482 368.985 19.482 376.478C19.482 379.475 19.8149 381.723 20.481 383.222C21.3136 384.554 22.2294 385.22 23.2285 385.22C25.0601 385.22 27.3914 383.388 30.2221 379.725C33.2193 376.062 35.8834 371.15 38.2146 364.989C41.8779 355.497 43.7096 344.508 43.7096 332.019C43.7096 328.189 43.6263 325.275 43.4598 323.277L42.2109 303.545C41.8779 297.218 41.7114 292.722 41.7114 290.058C41.7114 279.235 42.7938 270.076 44.9584 262.583C48.4552 250.428 53.8669 241.02 61.1934 234.359C68.52 227.532 75.8465 224.119 83.1731 224.119C89.3341 224.119 94.1629 226.45 97.6597 231.112C101.156 235.775 102.905 242.352 102.905 250.844C102.905 259.836 100.99 269.827 97.1602 280.816L75.68 283.314C80.6754 268.328 83.1731 257.172 83.1731 249.845C83.1731 245.183 82.1741 242.851 80.1759 242.851C78.3443 242.851 75.9297 244.766 72.9325 248.596C69.9353 252.426 67.5209 256.839 65.6892 261.834C62.5255 270.826 60.9437 280.733 60.9437 291.556C60.9437 295.719 61.0269 298.883 61.1934 301.048L62.4423 320.779C62.7753 327.107 62.9417 331.52 62.9417 334.017C62.9417 345.507 61.6929 355.414 59.1952 363.74C55.3654 376.728 49.8706 386.718 42.7105 393.712C35.5505 400.539 28.3071 403.953 20.9806 403.953Z" fill="#0a0a0a"/>
    <path d="M118.303 226.616H189.487L178.247 246.598L157.517 241.603L90.5783 401.455H64.1028L88.5802 356.496L136.786 241.603L112.308 246.598L118.303 226.616Z" fill="#0a0a0a"/>
    <path d="M472.746 226.616C484.402 226.616 493.644 230.113 500.471 237.107C507.298 244.1 510.711 254.174 510.711 267.329C510.711 280.65 506.965 296.219 499.472 314.036C491.812 331.853 482.57 347.338 471.747 360.493C461.09 373.647 449.934 383.805 438.278 390.965C426.789 397.958 415.882 401.455 405.558 401.455H386.576L410.054 356.496L458.01 242.352L448.019 241.103L454.014 226.616H472.746ZM476.992 314.036C485.485 295.22 489.731 279.568 489.731 267.079C489.731 260.918 488.648 256.006 486.484 252.343C484.485 248.513 481.655 246.015 477.991 244.85L420.045 382.472C428.537 379.309 438.112 371.649 448.769 359.494C459.592 347.172 469 332.019 476.992 314.036Z" fill="#0a0a0a"/>
  </g>
</svg>
